<?xml version="1.0" standalone="no"?>
<!DOCTYPE svg PUBLIC "-//W3C//DTD SVG 20010904//EN"
 "http://www.w3.org/TR/2001/REC-SVG-20010904/DTD/svg10.dtd">
<svg version="1.0" xmlns="http://www.w3.org/2000/svg"
 width="401.000000pt" height="401.000000pt" viewBox="0 0 401.000000 401.000000"
 preserveAspectRatio="xMidYMid meet">
<metadata>
Created by potrace 1.11, written by Peter Selinger 2001-2013
</metadata>
<g transform="translate(0.000000,401.000000) scale(0.100000,-0.100000)"
fill="#000000" stroke="none">
<path d="M118 3975 c-25 -19 -61 -56 -80 -82 l-33 -48 -3 -1815 c-2 -1298 0
-1826 8 -1853 9 -31 110 -161 110 -141 0 3 13 -4 29 -15 l29 -21 1826 0 c1788
0 1827 0 1862 19 50 27 89 63 119 111 l25 40 0 1842 -1 1843 -27 40 c-15 22
-50 57 -77 77 l-50 38 -1845 0 -1845 0 -47 -35z"/>
</g>
</svg>
